<?xml version="1.0" encoding="utf-8"?>
<!-- Generator: Adobe Illustrator 21.1.0, SVG Export Plug-In . SVG Version: 6.00 Build 0)  -->
<svg version="1.1"
	 id="svg8" inkscape:version="0.92.3 (2405546, 2018-03-11)" sodipodi:docname="logo.svg" xmlns:cc="http://creativecommons.org/ns#" xmlns:dc="http://purl.org/dc/elements/1.1/" xmlns:inkscape="http://www.inkscape.org/namespaces/inkscape" xmlns:rdf="http://www.w3.org/1999/02/22-rdf-syntax-ns#" xmlns:sodipodi="http://sodipodi.sourceforge.net/DTD/sodipodi-0.dtd" xmlns:svg="http://www.w3.org/2000/svg"
	 xmlns="http://www.w3.org/2000/svg" xmlns:xlink="http://www.w3.org/1999/xlink" x="0px" y="0px" viewBox="0 0 453 223"
	 style="enable-background:new 0 0 453 223;" xml:space="preserve">
<style type="text/css">
	.st0{enable-background:new    ;}
</style>
<sodipodi:namedview  bordercolor="#666666" borderopacity="1.0" id="base" inkscape:current-layer="layer1" inkscape:cx="72.227282" inkscape:cy="630.14823" inkscape:document-units="mm" inkscape:pageopacity="0.0" inkscape:pageshadow="2" inkscape:snap-nodes="false" inkscape:window-height="1017" inkscape:window-maximized="1" inkscape:window-width="1920" inkscape:window-x="-8" inkscape:window-y="-8" inkscape:zoom="0.98994949" pagecolor="#ffffff" showgrid="false">
	</sodipodi:namedview>
<g id="layer1" inkscape:groupmode="layer" inkscape:label="Capa 1">
	<g class="st0">
		<path d="M302.5,131.6c-21.3,16.5-40.6,24.7-58.1,24.7c-10.6,0-18.7-3.7-24.3-11.1c-5.5-7.4-8.3-17.2-8.3-29.6
			c0-9.6,2.7-22.7,8.2-39.4c5.5-16.7,12.5-30.8,21.1-42.2l8.3-10.7c-11.3,8.5-20.5,17.7-27.8,27.8c-7.2,10.1-15.8,24.2-25.8,42.3
			c-10,18.1-17.6,30.4-22.7,37c-5.1,6.6-10,11.9-14.7,16s-8.9,6.8-12.5,8c-3.7,1.2-10,1.8-19.1,1.8c-3.5,0-5.3-0.7-5.3-2
			c0-0.1,0.6-2.3,1.9-6.5c1.3-4.2,2.5-10.8,3.8-20c1.3-9.2,2.2-24.8,2.8-46.8s5-40.9,13.4-56.6c-8.9,7.3-18,24.3-27.4,51l-3.6,10
			c-9.8,27.8-21,46.6-33.6,56.3c-12.6,9.7-25,14.6-37.2,14.6c-7.5,0-14.1-1.7-19.8-5.1c-5.7-3.4-8.5-7.3-8.5-11.8
			c0-3.4,3.4-7.2,10.3-11.5c6.8-4.2,11.2-6.4,13-6.4c2.1,0,3.4,0.5,4.1,1.5c0.7,1,1.5,3.8,2.6,8.5c1,4.6,2.6,7.6,4.8,9
			c2.1,1.4,4.8,2.1,8.1,2.1c7.3,0,15.4-5.3,24.3-15.8c8.8-10.6,16.9-26.9,24.3-48.9l4.1-12.4c3.3-10.1,6.6-18.2,9.8-24.2
			c3.2-6,7.5-12,12.8-18c7.7-8.6,12.4-13.2,14.2-13.8c1.8-0.6,5.1-1.1,9.9-1.4c4.8-0.4,9.7-0.6,14.5-0.6c1.9,0,2.8,0.8,2.8,2.4
			c0,0.8-0.3,2.3-0.9,4.6c-1.9,9.6-2.8,19.2-2.7,28.8l0.3,27.5c0.2,23.9-2.5,43.2-8,57.9c5-4.4,12.3-15.6,21.9-33.8
			c13.9-25.7,26.5-45.1,37.9-58c5.4-6.2,11.9-12.2,19.6-17.9c7.6-5.7,12.9-8.8,15.9-9.2c10.1-1.4,18.5-2,25.5-2
			c2.6,0,3.8,0.5,3.8,1.5c0,1.4-1.6,4.6-4.7,9.6c-7.4,12-14.3,28.3-20.7,48.8s-9.6,36.8-9.7,49c0,13.7,5.8,20.6,17.5,20.6
			c9.5,0,20.8-5.8,33.9-17.4V131.6z"/>
	</g>
	<g class="st0">
		<path d="M402,86.8c-6.5,4.1-11.2,8.9-14.1,14.3c-2.9,5.4-6,16.8-9.1,34c-3.1,17.2-8.1,30.8-15,40.7c-6.9,9.9-17.8,18.2-32.6,24.8
			c-14.8,6.6-31.1,9.9-48.9,9.9c-12.6,0-22.8-2.2-30.7-6.6s-11.8-9.9-11.8-16.7c0-2.6,1.1-4.7,3.4-6.3c2.3-1.6,6.9-3.8,14-6.6
			c7-2.8,11.8-4.2,14.3-4.2c1.7,0,3.1,0.4,4.3,1.2c1.2,0.8,1.8,1.8,1.8,2.9c0,0.7-0.5,3.3-1.4,7.7c-0.9,4.4-1.4,7.1-1.4,7.9
			c0,8.3,5,12.4,14.9,12.4c11.2,0,20.6-4.6,28.3-13.8c7.6-9.2,13.2-23.5,16.6-43.1c3.4-19.5,8.6-33.3,15.5-41.3
			c6.9-8,15-13.7,24.3-17.1c9.3-3.4,15.7-5,19.3-5C396,81.9,398.8,83.6,402,86.8z M374,59.8c20.9,0,37.6,3.6,50,10.7
			c12.4,7.1,18.6,16.6,18.6,28.4c0,11-4.6,19.7-13.8,26.4c-9.2,6.6-17.1,9.9-23.7,9.9c-2.5,0-5.3-0.8-8.4-2.3
			c-3.1-1.5-4.7-2.9-4.7-4.2c0-0.7,2.3-3.2,7-7.5c10.9-9.4,16.4-18.8,16.4-28.1c0-7.8-3.8-14.1-11.3-18.7
			c-7.5-4.6-17.8-6.9-30.6-6.9c-19.4,0-37,4.1-52.8,12.4c-15.8,8.3-23.7,17.4-23.7,27.2c0,6.5,4.3,11,12.8,13.4
			c3.4,1,5.1,2.5,5.1,4.3c0,1.9-3.7,4.1-11.2,6.6c-7.4,2.5-12.6,3.7-15.6,3.7c-4.5,0-8.7-2.1-12.6-6.2c-4-4.1-6-8.6-6-13.5
			c0-13,10-25.6,30.1-37.6C319.5,65.8,344.4,59.8,374,59.8z"/>
	</g>
</g>
</svg>
